<?xml version="1.0" encoding="UTF-8" standalone="no"?>
<!DOCTYPE svg PUBLIC "-//W3C//DTD SVG 1.1//EN"
 "http://www.w3.org/Graphics/SVG/1.1/DTD/svg11.dtd">
<!-- Generated by graphviz version 2.43.0 (0)
 -->
<!-- Title: G Pages: 1 -->
<svg width="517pt" height="476pt"
 viewBox="0.00 0.00 517.20 476.20" xmlns="http://www.w3.org/2000/svg" xmlns:xlink="http://www.w3.org/1999/xlink">
<g id="graph0" class="graph" transform="scale(1 1) rotate(0) translate(21.6 454.6)">
<title>G</title>
<polygon fill="#111111" stroke="transparent" points="-21.6,21.6 -21.6,-454.6 495.6,-454.6 495.6,21.6 -21.6,21.6"/>
<!-- app/api/health/route.ts -->
<g id="node1" class="node">
<title>app/api/health/route.ts</title>
<path fill="none" stroke="#cfffac" d="M187.83,-23C187.83,-23 53.17,-23 53.17,-23 49.33,-23 45.5,-19.17 45.5,-15.33 45.5,-15.33 45.5,-7.67 45.5,-7.67 45.5,-3.83 49.33,0 53.17,0 53.17,0 187.83,0 187.83,0 191.67,0 195.5,-3.83 195.5,-7.67 195.5,-7.67 195.5,-15.33 195.5,-15.33 195.5,-19.17 191.67,-23 187.83,-23"/>
<text text-anchor="middle" x="120.5" y="-7.8" font-family="Arial" font-size="14.00" fill="#cfffac">app/api/health/route.ts</text>
</g>
<!-- app/layout.tsx -->
<g id="node2" class="node">
<title>app/layout.tsx</title>
<path fill="none" stroke="#cfffac" d="M162.83,-64C162.83,-64 78.17,-64 78.17,-64 74.33,-64 70.5,-60.17 70.5,-56.33 70.5,-56.33 70.5,-48.67 70.5,-48.67 70.5,-44.83 74.33,-41 78.17,-41 78.17,-41 162.83,-41 162.83,-41 166.67,-41 170.5,-44.83 170.5,-48.67 170.5,-48.67 170.5,-56.33 170.5,-56.33 170.5,-60.17 166.67,-64 162.83,-64"/>
<text text-anchor="middle" x="120.5" y="-48.8" font-family="Arial" font-size="14.00" fill="#cfffac">app/layout.tsx</text>
</g>
<!-- app/mypage/page.tsx -->
<g id="node3" class="node">
<title>app/mypage/page.tsx</title>
<path fill="none" stroke="#cfffac" d="M185.83,-105C185.83,-105 55.17,-105 55.17,-105 51.33,-105 47.5,-101.17 47.5,-97.33 47.5,-97.33 47.5,-89.67 47.5,-89.67 47.5,-85.83 51.33,-82 55.17,-82 55.17,-82 185.83,-82 185.83,-82 189.67,-82 193.5,-85.83 193.5,-89.67 193.5,-89.67 193.5,-97.33 193.5,-97.33 193.5,-101.17 189.67,-105 185.83,-105"/>
<text text-anchor="middle" x="120.5" y="-89.8" font-family="Arial" font-size="14.00" fill="#cfffac">app/mypage/page.tsx</text>
</g>
<!-- app/page.tsx -->
<g id="node4" class="node">
<title>app/page.tsx</title>
<path fill="none" stroke="#cfffac" d="M159.83,-146C159.83,-146 81.17,-146 81.17,-146 77.33,-146 73.5,-142.17 73.5,-138.33 73.5,-138.33 73.5,-130.67 73.5,-130.67 73.5,-126.83 77.33,-123 81.17,-123 81.17,-123 159.83,-123 159.83,-123 163.67,-123 167.5,-126.83 167.5,-130.67 167.5,-130.67 167.5,-138.33 167.5,-138.33 167.5,-142.17 163.67,-146 159.83,-146"/>
<text text-anchor="middle" x="120.5" y="-130.8" font-family="Arial" font-size="14.00" fill="#cfffac">app/page.tsx</text>
</g>
<!-- components/Button/Button.stories.tsx -->
<g id="node5" class="node">
<title>components/Button/Button.stories.tsx</title>
<path fill="none" stroke="#c6c5fe" d="M233.33,-187C233.33,-187 7.67,-187 7.67,-187 3.83,-187 0,-183.17 0,-179.33 0,-179.33 0,-171.67 0,-171.67 0,-167.83 3.83,-164 7.67,-164 7.67,-164 233.33,-164 233.33,-164 237.17,-164 241,-167.83 241,-171.67 241,-171.67 241,-179.33 241,-179.33 241,-183.17 237.17,-187 233.33,-187"/>
<text text-anchor="middle" x="120.5" y="-171.8" font-family="Arial" font-size="14.00" fill="#c6c5fe">components/Button/Button.stories.tsx</text>
</g>
<!-- components/Button/Button.tsx -->
<g id="node6" class="node">
<title>components/Button/Button.tsx</title>
<path fill="none" stroke="#cfffac" d="M466.33,-187C466.33,-187 284.67,-187 284.67,-187 280.83,-187 277,-183.17 277,-179.33 277,-179.33 277,-171.67 277,-171.67 277,-167.83 280.83,-164 284.67,-164 284.67,-164 466.33,-164 466.33,-164 470.17,-164 474,-167.83 474,-171.67 474,-171.67 474,-179.33 474,-179.33 474,-183.17 470.17,-187 466.33,-187"/>
<text text-anchor="middle" x="375.5" y="-171.8" font-family="Arial" font-size="14.00" fill="#cfffac">components/Button/Button.tsx</text>
</g>
<!-- components/Button/Button.stories.tsx&#45;&gt;components/Button/Button.tsx -->
<g id="edge1" class="edge">
<title>components/Button/Button.stories.tsx&#45;&gt;components/Button/Button.tsx</title>
<path fill="none" stroke="#757575" d="M241.33,-175.5C249.78,-175.5 258.26,-175.5 266.63,-175.5"/>
<polygon fill="#757575" stroke="#757575" points="266.78,-179 276.78,-175.5 266.78,-172 266.78,-179"/>
</g>
<!-- components/Tooltip/Tooltip.tsx -->
<g id="node7" class="node">
<title>components/Tooltip/Tooltip.tsx</title>
<path fill="none" stroke="#cfffac" d="M211.33,-228C211.33,-228 29.67,-228 29.67,-228 25.83,-228 22,-224.17 22,-220.33 22,-220.33 22,-212.67 22,-212.67 22,-208.83 25.83,-205 29.67,-205 29.67,-205 211.33,-205 211.33,-205 215.17,-205 219,-208.83 219,-212.67 219,-212.67 219,-220.33 219,-220.33 219,-224.17 215.17,-228 211.33,-228"/>
<text text-anchor="middle" x="120.5" y="-212.8" font-family="Arial" font-size="14.00" fill="#cfffac">components/Tooltip/Tooltip.tsx</text>
</g>
<!-- jest.config.js -->
<g id="node8" class="node">
<title>jest.config.js</title>
<path fill="none" stroke="#cfffac" d="M158.33,-269C158.33,-269 82.67,-269 82.67,-269 78.83,-269 75,-265.17 75,-261.33 75,-261.33 75,-253.67 75,-253.67 75,-249.83 78.83,-246 82.67,-246 82.67,-246 158.33,-246 158.33,-246 162.17,-246 166,-249.83 166,-253.67 166,-253.67 166,-261.33 166,-261.33 166,-265.17 162.17,-269 158.33,-269"/>
<text text-anchor="middle" x="120.5" y="-253.8" font-family="Arial" font-size="14.00" fill="#cfffac">jest.config.js</text>
</g>
<!-- jest.setup.js -->
<g id="node9" class="node">
<title>jest.setup.js</title>
<path fill="none" stroke="#cfffac" d="M156.83,-310C156.83,-310 84.17,-310 84.17,-310 80.33,-310 76.5,-306.17 76.5,-302.33 76.5,-302.33 76.5,-294.67 76.5,-294.67 76.5,-290.83 80.33,-287 84.17,-287 84.17,-287 156.83,-287 156.83,-287 160.67,-287 164.5,-290.83 164.5,-294.67 164.5,-294.67 164.5,-302.33 164.5,-302.33 164.5,-306.17 160.67,-310 156.83,-310"/>
<text text-anchor="middle" x="120.5" y="-294.8" font-family="Arial" font-size="14.00" fill="#cfffac">jest.setup.js</text>
</g>
<!-- lp&#45;items.tsx -->
<g id="node10" class="node">
<title>lp&#45;items.tsx</title>
<path fill="none" stroke="#cfffac" d="M155.83,-351C155.83,-351 85.17,-351 85.17,-351 81.33,-351 77.5,-347.17 77.5,-343.33 77.5,-343.33 77.5,-335.67 77.5,-335.67 77.5,-331.83 81.33,-328 85.17,-328 85.17,-328 155.83,-328 155.83,-328 159.67,-328 163.5,-331.83 163.5,-335.67 163.5,-335.67 163.5,-343.33 163.5,-343.33 163.5,-347.17 159.67,-351 155.83,-351"/>
<text text-anchor="middle" x="120.5" y="-335.8" font-family="Arial" font-size="14.00" fill="#cfffac">lp&#45;items.tsx</text>
</g>
<!-- report&#45;bundle&#45;size.js -->
<g id="node11" class="node">
<title>report&#45;bundle&#45;size.js</title>
<path fill="none" stroke="#cfffac" d="M182.33,-392C182.33,-392 58.67,-392 58.67,-392 54.83,-392 51,-388.17 51,-384.33 51,-384.33 51,-376.67 51,-376.67 51,-372.83 54.83,-369 58.67,-369 58.67,-369 182.33,-369 182.33,-369 186.17,-369 190,-372.83 190,-376.67 190,-376.67 190,-384.33 190,-384.33 190,-388.17 186.17,-392 182.33,-392"/>
<text text-anchor="middle" x="120.5" y="-376.8" font-family="Arial" font-size="14.00" fill="#cfffac">report&#45;bundle&#45;size.js</text>
</g>
<!-- styles/tailwind.css -->
<g id="node12" class="node">
<title>styles/tailwind.css</title>
<path fill="none" stroke="#cfffac" d="M174.83,-433C174.83,-433 66.17,-433 66.17,-433 62.33,-433 58.5,-429.17 58.5,-425.33 58.5,-425.33 58.5,-417.67 58.5,-417.67 58.5,-413.83 62.33,-410 66.17,-410 66.17,-410 174.83,-410 174.83,-410 178.67,-410 182.5,-413.83 182.5,-417.67 182.5,-417.67 182.5,-425.33 182.5,-425.33 182.5,-429.17 178.67,-433 174.83,-433"/>
<text text-anchor="middle" x="120.5" y="-417.8" font-family="Arial" font-size="14.00" fill="#cfffac">styles/tailwind.css</text>
</g>
</g>
</svg>
